HIERARCHY
ROOT Hips
{
	OFFSET 0.000000 0.000000 0.000000 
	CHANNELS 6 Xposition Yposition Zposition Yrotation Xrotation Zrotation
	JOINT Spine
	{
		OFFSET 0.000000 0.072080 0.012321 
		CHANNELS 3 Xrotation Yrotation Zrotation
		JOINT Spine1
		{
			OFFSET 0.000000 0.126984 -0.001294 
			CHANNELS 3 Xrotation Yrotation Zrotation
			JOINT Spine2
			{
				OFFSET 0.000000 0.106559 -0.010096 
				CHANNELS 3 Xrotation Yrotation Zrotation
				JOINT Neck
				{
					OFFSET 0.000000 0.108417 -0.034017 
					CHANNELS 3 Xrotation Yrotation Zrotation
					JOINT Neck1
					{
						OFFSET 0.000000 0.033906 0.007241 
						CHANNELS 3 Xrotation Yrotation Zrotation
						JOINT Head
						{
							OFFSET 0.000000 0.031458 0.006707 
							CHANNELS 3 Xrotation Yrotation Zrotation
							End Site
							{
								OFFSET 0.000000 0.179920 0.000962 
							}
						}
					}
				}
				JOINT LeftShoulder
				{
					OFFSET 0.048002 0.079586 -0.029634 
					CHANNELS 3 Zrotation Xrotation Yrotation
					JOINT LeftArm
					{
						OFFSET 0.096243 -0.008695 -0.014012 
						CHANNELS 3 Zrotation Xrotation Yrotation
						JOINT LeftForeArm
						{
							OFFSET 0.216305 0.000000 0.000000 
							CHANNELS 3 Xrotation Zrotation Yrotation
							JOINT LeftHand
							{
								OFFSET 0.217764 0.000000 0.000000 
								CHANNELS 3 Zrotation Yrotation Xrotation
								JOINT LeftHandThumb1
								{
									OFFSET 0.018582 -0.007835 0.020476 
									CHANNELS 3 Zrotation Xrotation Yrotation
									JOINT LeftHandThumb2
									{
										OFFSET 0.026269 -0.007835 0.022186 
										CHANNELS 3 Zrotation Xrotation Yrotation
										JOINT LeftHandThumb3
										{
											OFFSET 0.035170 -0.010504 0.017018 
											CHANNELS 3 Zrotation Xrotation Yrotation
											End Site
											{
												OFFSET 0.020312 -0.007813 0.007813 
											}
										}
									}
								}
								JOINT LeftHandMiddle1
								{
									OFFSET 0.081749 0.004803 0.003358 
									CHANNELS 3 Zrotation Xrotation Yrotation
									JOINT LeftHandMiddle2
									{
										OFFSET 0.045251 0.000000 0.000000 
										CHANNELS 3 Zrotation Xrotation Yrotation
										JOINT LeftHandMiddle3
										{
											OFFSET 0.029009 0.000000 0.000000 
											CHANNELS 3 Zrotation Xrotation Yrotation
											End Site
											{
												OFFSET 0.017969 0.000000 0.000000 
											}
										}
									}
								}
								JOINT LeftHandIndex1
								{
									OFFSET 0.081207 0.004803 0.021137 
									CHANNELS 3 Zrotation Xrotation Yrotation
									JOINT LeftHandIndex2
									{
										OFFSET 0.043354 0.000000 0.000000 
										CHANNELS 3 Zrotation Xrotation Yrotation
										JOINT LeftHandIndex3
										{
											OFFSET 0.026493 0.000000 0.000000 
											CHANNELS 3 Zrotation Xrotation Yrotation
											End Site
											{
												OFFSET 0.019531 0.000000 0.000000 
											}
										}
									}
								}
								JOINT LeftHandRing1
								{
									OFFSET 0.080666 0.002509 -0.014652 
									CHANNELS 3 Zrotation Xrotation Yrotation
									JOINT LeftHandRing2
									{
										OFFSET 0.042541 0.000000 0.000000 
										CHANNELS 3 Zrotation Xrotation Yrotation
										JOINT LeftHandRing3
										{
											OFFSET 0.029009 0.000000 0.000000 
											CHANNELS 3 Zrotation Xrotation Yrotation
											End Site
											{
												OFFSET 0.015625 0.000000 0.000000 
											}
										}
									}
								}
								JOINT LeftHandPinky1
								{
									OFFSET 0.078227 -0.000612 -0.030993 
									CHANNELS 3 Zrotation Xrotation Yrotation
									JOINT LeftHandPinky2
									{
										OFFSET 0.028721 0.000000 0.000000 
										CHANNELS 3 Zrotation Xrotation Yrotation
										JOINT LeftHandPinky3
										{
											OFFSET 0.021963 0.000000 0.000000 
											CHANNELS 3 Zrotation Xrotation Yrotation
											End Site
											{
												OFFSET 0.022656 0.000000 0.000000 
											}
										}
									}
								}
							}
						}
					}
				}
				JOINT RightShoulder
				{
					OFFSET -0.047970 0.079586 -0.029634 
					CHANNELS 3 Zrotation Xrotation Yrotation
					JOINT RightArm
					{
						OFFSET -0.096274 -0.008695 -0.014012 
						CHANNELS 3 Zrotation Xrotation Yrotation
						JOINT RightForeArm
						{
							OFFSET -0.216305 0.000000 0.000000 
							CHANNELS 3 Xrotation Zrotation Yrotation
							JOINT RightHand
							{
								OFFSET -0.217764 0.000000 0.000000 
								CHANNELS 3 Zrotation Yrotation Xrotation
								JOINT RightHandThumb1
								{
									OFFSET -0.019670 -0.007318 0.019638 
									CHANNELS 3 Zrotation Xrotation Yrotation
									JOINT RightHandThumb2
									{
										OFFSET -0.025498 -0.008492 0.023179 
										CHANNELS 3 Zrotation Xrotation Yrotation
										JOINT RightHandThumb3
										{
											OFFSET -0.034504 -0.010705 0.016680 
											CHANNELS 3 Zrotation Xrotation Yrotation
											End Site
											{
												OFFSET -0.020312 -0.007813 0.007813 
											}
										}
									}
								}
								JOINT RightHandIndex1
								{
									OFFSET -0.081770 0.003825 0.021187 
									CHANNELS 3 Zrotation Xrotation Yrotation
									JOINT RightHandIndex2
									{
										OFFSET -0.042006 0.000000 0.000000 
										CHANNELS 3 Zrotation Xrotation Yrotation
										JOINT RightHandIndex3
										{
											OFFSET -0.026449 0.000000 0.000000 
											CHANNELS 3 Zrotation Xrotation Yrotation
											End Site
											{
												OFFSET -0.020312 0.000000 0.000000 
											}
										}
									}
								}
								JOINT RightHandMiddle1
								{
									OFFSET -0.084059 0.003825 0.003342 
									CHANNELS 3 Zrotation Xrotation Yrotation
									JOINT RightHandMiddle2
									{
										OFFSET -0.043881 0.000000 0.000000 
										CHANNELS 3 Zrotation Xrotation Yrotation
										JOINT RightHandMiddle3
										{
											OFFSET -0.029191 0.000000 0.000000 
											CHANNELS 3 Zrotation Xrotation Yrotation
											End Site
											{
												OFFSET -0.017969 0.000000 0.000000 
											}
										}
									}
								}
								JOINT RightHandRing1
								{
									OFFSET -0.081798 0.003030 -0.015127 
									CHANNELS 3 Zrotation Xrotation Yrotation
									JOINT RightHandRing2
									{
										OFFSET -0.042198 0.000000 0.000000 
										CHANNELS 3 Zrotation Xrotation Yrotation
										JOINT RightHandRing3
										{
											OFFSET -0.026497 0.000000 0.000000 
											CHANNELS 3 Zrotation Xrotation Yrotation
											End Site
											{
												OFFSET -0.017188 0.000000 0.000000 
											}
										}
									}
								}
								JOINT RightHandPinky1
								{
									OFFSET -0.077902 -0.000930 -0.030891 
									CHANNELS 3 Zrotation Xrotation Yrotation
									JOINT RightHandPinky2
									{
										OFFSET -0.028538 0.000000 0.000000 
										CHANNELS 3 Zrotation Xrotation Yrotation
										JOINT RightHandPinky3
										{
											OFFSET -0.021734 0.000000 0.000000 
											CHANNELS 3 Zrotation Xrotation Yrotation
											End Site
											{
												OFFSET -0.022656 0.000000 0.000000 
											}
										}
									}
								}
							}
						}
					}
				}
			}
		}
	}
	JOINT LeftUpLeg
	{
		OFFSET 0.075264 -0.025573 0.000000 
		CHANNELS 3 Xrotation Yrotation Zrotation
		JOINT LeftLeg
		{
			OFFSET 0.000000 -0.326016 -0.013516 
			CHANNELS 3 Xrotation Yrotation Zrotation
			JOINT LeftFoot
			{
				OFFSET 0.000098 -0.306172 -0.006623 
				CHANNELS 3 Xrotation Yrotation Zrotation
				JOINT LeftToeBase
				{
					OFFSET -0.001432 -0.095259 0.064705 
					CHANNELS 3 Xrotation Yrotation Zrotation
					End Site
					{
						OFFSET 0.000000 0.000000 0.079438 
					}
				}
			}
		}
	}
	JOINT RightUpLeg
	{
		OFFSET -0.075264 -0.025573 0.000000 
		CHANNELS 3 Xrotation Yrotation Zrotation
		JOINT RightLeg
		{
			OFFSET 0.000000 -0.326016 -0.013516 
			CHANNELS 3 Xrotation Yrotation Zrotation
			JOINT RightFoot
			{
				OFFSET 0.000098 -0.306172 -0.006623 
				CHANNELS 3 Xrotation Yrotation Zrotation
				JOINT RightToeBase
				{
					OFFSET -0.001432 -0.095259 0.064705 
					CHANNELS 3 Xrotation Yrotation Zrotation
					End Site
					{
						OFFSET 0.000025 0.000000 0.079438 
					}
				}
			}
		}
	}
}
MOTION
Frames: 4
Frame Time: 0.033333
-0.014275 0.660091 1.192430 4.228600 10.484900 -0.280500 9.385300 -7.723700 0.271300 0.790300 -3.151600 -0.884000 3.726900 -3.188900 -1.068200 -2.881500 1.175700 0.415100 -0.000000 0.000000 -0.000000 -12.624300 6.346300 2.388400 -13.719000 2.682100 -9.408400 -61.433102 -8.154100 -19.917900 -0.000000 -0.000000 -84.596397 3.755000 3.409700 6.806400 -12.628500 3.701400 11.610100 11.762800 8.630000 21.736401 22.724100 -7.282000 -35.770000 -72.774803 0.011400 -0.717400 -78.810501 0.012100 -0.014700 -62.307701 0.008100 -0.013300 -79.383400 4.584200 0.534400 -72.727203 0.010600 -0.014400 -86.758003 0.014200 -0.015000 -72.814499 0.011400 -2.233100 -91.521797 0.015400 -0.015000 -70.938103 0.010100 -0.014200 -71.227097 -1.963800 -2.286300 -76.278801 0.011500 -0.014600 -73.786102 0.010800 -0.014400 9.924500 0.823300 1.328500 48.831799 15.683500 14.131800 -0.000000 -0.000000 80.052399 1.124800 2.321400 17.704100 2.931600 11.677800 -12.729000 -0.211800 -2.572100 -0.310500 -9.206600 -13.219600 17.859200 70.338799 0.790000 6.416000 70.877098 0.005300 0.007500 51.803299 0.003000 0.006200 69.856598 0.005500 5.929400 74.845802 0.005900 0.007600 68.297997 0.005000 0.007400 73.971901 0.006000 7.476900 65.364700 0.004600 0.007200 61.066601 0.004100 0.006900 77.743896 -0.140600 4.929500 73.180199 0.005600 0.007600 40.063999 0.001900 0.005100 -30.949499 1.580300 -1.973700 60.905602 2.183700 0.391600 -40.661098 -5.497900 1.032500 0.095700 0.000000 0.000000 -64.595001 -2.149200 -5.469700 117.599899 3.156400 0.722700 -1.534700 0.747400 -0.932500 -9.876300 0.000000 -0.000000 
-0.014648 0.673799 1.302509 4.810200 10.773400 -3.485600 10.308300 -11.898900 4.179800 0.974600 -5.652600 -0.277700 3.885800 -5.662900 -0.415800 -2.421500 2.036700 2.024100 -0.000000 0.000000 -0.000000 -12.503100 14.239600 1.010300 -9.558400 2.434800 -10.796300 -63.615299 -10.120500 -23.504299 -0.000000 -0.000100 -91.917801 2.707400 -1.819200 2.445300 -12.628500 3.701400 11.610100 11.643300 3.786300 22.692900 22.590599 -6.846500 -33.299999 -72.586098 0.011400 -1.043700 -78.734596 0.012100 -0.014700 -62.211899 0.008000 -0.013300 -78.668404 4.916000 -0.001100 -72.327599 0.010500 -0.014300 -86.358398 0.014100 -0.015000 -72.024498 0.011200 -2.549300 -91.617104 0.015500 -0.015000 -71.008904 0.010100 -0.014200 -69.706497 -1.890400 -2.779300 -76.339996 0.011500 -0.014600 -73.813202 0.010800 -0.014400 10.093700 0.739200 0.785600 48.607899 22.616899 2.038700 -0.000000 0.000100 93.649597 0.342600 -3.171700 19.698601 2.931600 11.677800 -12.729000 2.198400 -1.277100 -0.622800 -9.206500 -13.228900 17.876600 73.875900 0.742400 6.285000 70.847900 0.005300 0.007500 51.774200 0.003000 0.006200 72.726196 0.005900 5.768300 75.139099 0.005900 0.007700 68.597900 0.005000 0.007400 75.617500 0.006200 7.207800 65.781502 0.004700 0.007200 61.496899 0.004100 0.007000 78.573097 -0.182300 4.769000 73.928596 0.005700 0.007600 40.819099 0.001900 0.005200 -13.649900 2.711900 1.481100 44.607800 7.994600 3.618600 -43.115799 -10.536400 -5.934200 -1.388700 0.000000 -0.000000 -70.614502 -5.489600 -3.868600 103.951302 7.148000 1.240100 -7.624000 1.010100 -3.680400 -7.469700 0.000000 -0.000000 
-0.012939 0.693857 1.412117 2.201000 10.668800 -5.726200 10.390000 -14.768100 6.558400 0.740600 -7.281900 0.203900 3.593800 -7.289400 0.096200 -2.595700 3.283500 1.580900 -0.000000 0.000000 -0.000000 -10.639400 21.698700 0.038100 -6.863400 1.853600 -9.189000 -59.837799 -6.718900 -22.570299 0.000000 0.000000 -102.060699 8.601600 1.350300 -1.643900 -12.628400 3.701500 11.610100 11.585600 1.028500 20.568600 22.208099 -6.545200 -31.691799 -71.732803 0.011200 -0.972300 -78.442596 0.012000 -0.014700 -61.924500 0.007900 -0.013300 -77.682701 5.106400 -0.309700 -71.937897 0.010400 -0.014300 -85.968803 0.014000 -0.015000 -71.460197 0.011100 -2.862100 -91.393097 0.015400 -0.015000 -70.759102 0.010100 -0.014200 -68.588203 -1.873500 -2.891300 -76.074303 0.011400 -0.014600 -73.539299 0.010800 -0.014400 7.818200 0.447900 -0.547100 48.326000 32.032101 -5.665600 0.000000 0.000000 102.075500 -4.035600 -4.964400 19.603201 2.931600 11.677800 -12.729000 5.843600 -0.935800 -1.253500 -9.144400 -13.181600 17.606199 75.166801 0.556600 5.817800 70.847801 0.005300 0.007500 51.773998 0.003000 0.006200 74.362503 0.006100 5.998800 75.592102 0.005900 0.007700 69.041603 0.005100 0.007400 76.003098 0.006300 7.043400 66.575699 0.004800 0.007300 62.298599 0.004200 0.007000 77.749496 -0.416600 3.869500 76.478203 0.006100 0.007700 43.402000 0.002200 0.005400 -1.919800 6.491500 2.860000 32.493198 7.775000 6.342200 -19.976400 -11.197000 -5.817200 -19.001600 0.000000 -0.000000 -70.995796 -5.691200 1.475100 83.095802 3.232800 1.425200 -10.443600 0.744200 -0.041700 -6.656600 0.000000 -0.000000 
-0.009092 0.707619 1.519932 0.392200 10.375300 -7.040800 10.817700 -18.809799 9.335900 0.478700 -8.363900 0.276500 3.226400 -8.380600 0.149100 -3.188200 4.628000 -0.111900 -0.000000 0.000000 -0.000000 -7.211100 27.624500 -0.433200 -5.740900 1.386000 -6.699500 -51.603500 -2.853700 -17.767099 -0.000000 0.000000 -112.525200 14.719100 6.814700 -5.587200 -12.628400 3.701400 11.610100 11.229300 -2.217200 17.686399 21.752199 -6.162100 -29.745199 -71.788300 0.011200 -0.856500 -78.128899 0.011900 -0.014700 -61.618000 0.007900 -0.013200 -78.150597 4.958200 -0.067400 -71.199799 0.010200 -0.014200 -85.230598 0.013800 -0.015000 -71.456299 0.011000 -3.453700 -91.237900 0.015400 -0.015000 -70.549599 0.010000 -0.014200 -66.995903 -1.911500 -2.638100 -76.218498 0.011500 -0.014600 -73.702003 0.010800 -0.014400 3.108000 0.437100 0.532200 50.204300 38.048801 -11.675200 -0.000000 0.000000 107.494598 -9.100700 -5.027100 21.796900 2.931600 11.677800 -12.729000 7.199200 -2.975400 -6.362900 -9.074400 -13.125300 17.308800 74.767403 0.269100 5.071300 69.987900 0.005200 0.007500 50.914101 0.002900 0.006100 73.968300 0.006000 6.201900 75.181396 0.005900 0.007600 68.622101 0.005000 0.007400 75.351501 0.006200 6.926600 66.030197 0.004700 0.007200 61.757999 0.004200 0.007000 75.724503 -0.588300 3.211200 76.542603 0.006100 0.007700 43.489300 0.002200 0.005500 2.362900 10.120200 5.743700 34.347500 4.912200 5.266100 0.239800 -9.052000 -8.319100 -11.466100 0.000000 -0.000000 -65.965698 -4.163500 6.231600 57.128201 -0.054400 1.081600 -8.788800 0.549000 3.127300 -8.147600 0.000000 -0.000000 
